<svg width="34" height="34" viewBox="0 0 34 34" fill="none" xmlns="http://www.w3.org/2000/svg">
<rect width="34" height="34" rx="10" fill="#282828"/>
<path d="M17.0104 9.00462C18.5961 9.00462 20.1829 9.02099 21.7686 9.00025C23.2976 8.9806 24.7806 10.1114 24.9892 11.8611C25.0034 11.9758 24.999 12.0936 24.999 12.2104C24.999 14.6937 25.0012 17.1769 24.999 19.6601C24.9979 21.3127 23.7792 22.676 22.1345 22.8539C21.8276 22.8867 21.5142 22.8659 21.2029 22.8659C20.5597 22.867 19.9164 22.8681 19.2732 22.8637C19.1629 22.8637 19.0897 22.8987 19.0176 22.9816C18.4978 23.5809 17.9736 24.1747 17.4516 24.7706C17.1829 25.0774 16.8182 25.0763 16.5484 24.7685C16.0264 24.1725 15.5011 23.5776 14.9824 22.9784C14.9092 22.8943 14.8349 22.8627 14.7257 22.8627C13.8608 22.8659 12.9958 22.8681 12.1298 22.8627C10.6063 22.855 9.24778 21.662 9.03264 20.1513C9.0108 19.9963 9.00097 19.8435 9.00097 19.6874C9.00097 17.1878 8.99879 14.6882 9.00097 12.1875C9.00315 10.5502 10.235 9.1869 11.8688 9.01008C12.0009 8.99589 12.1342 9.00134 12.2674 9.00134C13.8477 9.00134 15.429 9.00134 17.0093 9.00134L17.0104 9.00462ZM17.0038 19.6426C17.2441 19.6405 17.4385 19.4876 17.5007 19.23C17.6034 18.8109 17.6886 18.3874 17.7934 17.9682C17.9583 17.3057 18.3788 16.8887 19.0428 16.7261C19.4359 16.63 19.8312 16.546 20.2255 16.4554C20.3118 16.4357 20.3991 16.4172 20.4734 16.3626C20.6394 16.2425 20.7268 16.0843 20.7006 15.878C20.6722 15.652 20.5455 15.497 20.3238 15.4424C19.9044 15.3388 19.4818 15.2482 19.0613 15.1477C18.382 14.9862 17.9561 14.566 17.7901 13.8881C17.6918 13.4842 17.6045 13.0782 17.5127 12.6732C17.468 12.4768 17.3675 12.325 17.1687 12.2585C16.8771 12.1613 16.5845 12.3141 16.508 12.6165C16.401 13.0345 16.3136 13.4581 16.2131 13.8783C16.0504 14.5572 15.6278 14.9818 14.9496 15.1456C14.5619 15.2394 14.172 15.3235 13.7832 15.413C13.6915 15.4337 13.5987 15.4534 13.52 15.5101C13.3551 15.6313 13.2732 15.7928 13.3016 15.998C13.3311 16.2174 13.4556 16.3692 13.6697 16.4226C14.0945 16.5285 14.5226 16.618 14.9485 16.7206C15.6267 16.8844 16.0504 17.3079 16.2131 17.9868C16.3125 18.4016 16.401 18.8185 16.5026 19.2322C16.5637 19.4833 16.7701 19.6416 17.0049 19.6394L17.0038 19.6426Z" fill="#4A4A4A"/>
</svg>
