<svg width="34" height="34" viewBox="0 0 34 34" fill="none" xmlns="http://www.w3.org/2000/svg">
<rect width="34" height="34" rx="10" fill="#282828"/>
<path d="M20.2631 24.9455C18.1066 24.964 15.9512 24.9825 13.7834 25C13.797 24.9662 13.7992 24.952 13.8037 24.9498C14.2398 24.856 14.3098 24.7731 14.3098 24.3476C14.3098 23.8687 14.3031 23.3897 14.3064 22.9119C14.3064 22.781 14.2692 22.7461 14.1313 22.7701C13.5213 22.877 12.9091 22.9021 12.3047 22.7373C11.514 22.5224 10.9423 22.0609 10.6272 21.3191C10.3572 20.6831 9.9765 20.1321 9.35293 19.7656C9.26256 19.7132 9.18009 19.6434 9.10667 19.5692C8.93157 19.3914 8.9745 19.2539 9.21737 19.1873C9.43765 19.1273 9.65342 19.1568 9.86692 19.2146C10.46 19.3772 10.8847 19.7492 11.2078 20.2401C11.4642 20.6318 11.7681 20.9722 12.2155 21.1653C12.8978 21.4609 13.5733 21.3736 14.2432 21.1184C14.329 21.0856 14.3381 21.0169 14.3516 20.9438C14.4284 20.5434 14.59 20.1801 14.8622 19.8648C14.895 19.8267 14.9684 19.7896 14.9323 19.7317C14.904 19.687 14.8317 19.6914 14.7752 19.6848C14.2138 19.6183 13.6637 19.5059 13.1271 19.3281C11.4066 18.7586 10.4543 17.5749 10.1651 15.8686C10.0556 15.2228 10.0025 14.5715 10.1109 13.9169C10.2363 13.1609 10.5583 12.4954 11.0745 11.9172C11.1558 11.8266 11.166 11.7524 11.1276 11.6412C10.8328 10.7978 10.9378 9.9698 11.2417 9.15049C11.288 9.02612 11.3874 9.01303 11.497 9.01085C11.9127 9.00539 12.3013 9.11994 12.6843 9.26068C13.2096 9.45269 13.6953 9.71779 14.163 10.0134C14.2646 10.0778 14.3573 10.092 14.4793 10.0625C16.1579 9.65233 17.8411 9.64906 19.522 10.0473C19.6881 10.0865 19.8135 10.068 19.9581 9.97744C20.5986 9.58033 21.2628 9.21704 22.0197 9.0763C22.876 8.91811 22.7596 8.96284 22.955 9.62833C23.1493 10.2895 23.146 10.9571 22.9426 11.6182C22.9019 11.7503 22.9268 11.8419 23.0194 11.9466C23.6656 12.6819 23.983 13.5383 23.9988 14.4995C24.0101 15.1813 23.9401 15.8545 23.7469 16.5123C23.303 18.0222 22.2535 18.9386 20.7274 19.3859C20.2337 19.5299 19.7288 19.6194 19.2182 19.6826C19.1764 19.6881 19.121 19.6728 19.1041 19.7241C19.0916 19.7623 19.1334 19.7874 19.1583 19.8136C19.5717 20.2772 19.7333 20.8325 19.7423 21.4271C19.757 22.3839 19.7446 23.3417 19.7446 24.2996C19.7446 24.7098 19.7875 24.7644 20.2021 24.8822C20.2247 24.8887 20.2461 24.9018 20.2676 24.9116C20.2676 24.9225 20.2665 24.9334 20.2653 24.9444L20.2631 24.9455Z" fill="#4A4A4A"/>
</svg>
