<svg width="34" height="34" viewBox="0 0 34 34" fill="none" xmlns="http://www.w3.org/2000/svg">
<rect width="34" height="34" rx="10" fill="#282828"/>
<path d="M13.9149 18.3669C13.2135 18.3669 12.5132 18.3669 11.8118 18.3669C11.7052 18.3669 11.5987 18.3669 11.4933 18.3549C11.2825 18.3309 11.0951 18.2539 11.0237 18.0242C10.9546 17.7994 11.0425 17.6238 11.2099 17.4747C11.8926 16.8699 12.5729 16.2627 13.2545 15.6567C15.1948 13.9313 17.1351 12.2046 19.0755 10.4804C19.5649 10.0451 20.0579 9.61583 20.5509 9.18537C20.7535 9.00862 20.9865 8.91844 21.2172 9.09759C21.4655 9.28998 21.4268 9.56052 21.3027 9.80942C20.6493 11.1188 19.9877 12.4234 19.3319 13.7317C19.0556 14.2836 18.7792 14.8367 18.5146 15.3946C18.3658 15.7096 18.6375 15.623 18.7605 15.6242C20.1832 15.6315 21.606 15.6278 23.0299 15.6315C23.2103 15.6315 23.3894 15.6555 23.5686 15.6687C23.7688 15.6832 23.9093 15.7818 23.9737 15.9814C24.037 16.1798 23.9843 16.3481 23.8344 16.4828C23.3637 16.906 22.8906 17.328 22.4175 17.7489C21.1341 18.89 19.8518 20.0323 18.5673 21.1709C17.1867 22.395 15.8025 23.6166 14.4208 24.8407C14.2182 25.0198 13.9934 25.0607 13.7814 24.8972C13.5472 24.7168 13.5695 24.4559 13.6866 24.2154C14.0285 23.5132 14.3786 22.8158 14.7287 22.1184C15.3014 20.9749 15.8775 19.8351 16.4489 18.6904C16.5941 18.3982 16.5754 18.3717 16.2382 18.3705C15.463 18.3669 14.6878 18.3705 13.9126 18.3705L13.9149 18.3669Z" fill="white"/>
</svg>
