<svg width="34" height="34" viewBox="0 0 34 34" fill="none" xmlns="http://www.w3.org/2000/svg">
<rect width="34" height="34" rx="10" fill="#282828"/>
<path d="M20.2048 9.85498C20.2706 9.85808 20.303 9.90868 20.3427 9.94793C21.5562 11.147 22.7676 12.3471 23.9832 13.544C24.0856 13.6453 24.0783 13.7083 23.9801 13.8033C23.6626 14.109 23.3524 14.4209 23.0391 14.7307C21.1593 16.5897 19.2795 18.4487 17.4008 20.3066C17.2713 20.4347 17.14 20.433 17.0071 20.3015C15.8301 19.1375 14.6552 17.9715 13.473 16.8128C13.3331 16.6764 13.3425 16.6031 13.4772 16.4709C15.6651 14.3155 17.8478 12.1539 20.0325 9.99544C20.0858 9.94277 20.1296 9.87873 20.2069 9.85498H20.2048Z" fill="#4A4A4A"/>
<path d="M15.8667 24.882C14.1581 24.882 12.4486 24.8831 10.74 24.882C9.80431 24.882 9.07536 24.2861 8.89887 23.3825C8.87903 23.2792 8.87694 23.1707 8.87694 23.0654C8.87589 19.6603 8.87485 16.2553 8.87694 12.8502C8.87694 11.8309 9.6769 11.0377 10.7056 11.0367C12.8256 11.0336 14.9466 11.0357 17.0666 11.0367C17.1251 11.0367 17.2118 11.0037 17.2379 11.0708C17.264 11.1358 17.1815 11.1741 17.1387 11.2154C16.8358 11.518 16.5267 11.8144 16.229 12.1211C16.1225 12.2306 16.0087 12.2657 15.8594 12.2657C14.201 12.2616 12.5425 12.2626 10.8841 12.2636C10.3307 12.2636 10.1176 12.4764 10.1176 13.0279C10.1176 16.3142 10.1176 19.6004 10.1176 22.8857C10.1176 23.4444 10.3317 23.6541 10.9019 23.6541C14.2187 23.6541 17.5345 23.6541 20.8513 23.6541C21.4215 23.6541 21.6356 23.4444 21.6356 22.8857C21.6356 21.2519 21.6377 19.618 21.6324 17.9852C21.6324 17.821 21.6815 17.7032 21.8006 17.5907C22.1107 17.2963 22.4105 16.9906 22.7164 16.6911C22.754 16.655 22.7875 16.5817 22.8522 16.6157C22.8982 16.6395 22.8773 16.7077 22.8773 16.7562C22.8773 18.8971 22.8835 21.037 22.8731 23.178C22.8689 24.0744 22.0408 24.8758 21.1259 24.8789C19.3725 24.8862 17.6191 24.881 15.8667 24.881V24.882Z" fill="#4A4A4A"/>
<path d="M22.8029 8.02813C23.2864 8.0302 23.7104 8.19234 24.0571 8.52386C24.5167 8.96382 24.972 9.40688 25.4127 9.8644C26.0978 10.576 26.0915 11.6656 25.4127 12.3802C25.3135 12.4856 25.2007 12.5785 25.1077 12.689C24.9918 12.8254 24.9041 12.8295 24.7746 12.6942C24.4571 12.3627 24.124 12.0456 23.7981 11.7224C22.9345 10.8683 22.074 10.0121 21.2051 9.16315C21.0777 9.03818 21.0704 8.96382 21.2009 8.83266C21.5549 8.47429 21.9225 8.14793 22.4457 8.05498C22.5658 8.0333 22.6849 8.03123 22.805 8.0271L22.8029 8.02813Z" fill="#4A4A4A"/>
<path d="M12.0404 22.1337C11.5631 22.141 11.2634 21.7289 11.4044 21.2869C11.538 20.8696 11.6895 20.4586 11.8336 20.0455C12.0863 19.3184 12.3391 18.5913 12.5939 17.8653C12.6628 17.6691 12.6805 17.6639 12.8236 17.8054C13.8794 18.8485 14.9342 19.8916 15.989 20.9357C16.1373 21.0824 16.131 21.1103 15.9389 21.1588C14.6898 21.4748 13.4419 21.7888 12.1928 22.1028C12.1323 22.1183 12.0696 22.1275 12.0393 22.1337H12.0404Z" fill="#4A4A4A"/>
</svg>
