<svg width="149" height="43" viewBox="0 0 149 43" fill="none" xmlns="http://www.w3.org/2000/svg">
<g clip-path="url(#clip0_40_116)">
<path d="M21.2498 0.00272944C32.8255 -0.179255 42.529 9.65743 42.5022 21.4851C42.4754 33.2285 33.1413 42.9661 21.31 43.0014C9.44523 43.0353 -0.0214212 33.3861 -9.52635e-06 21.3398C0.0214022 9.55557 9.63525 -0.153451 21.2498 0.00272944ZM41.2296 21.4647C41.3553 10.7738 32.7867 1.32823 21.401 1.21008C10.3686 1.096 1.35963 10.1776 1.23652 21.2189C1.11072 32.4693 10.1411 41.6243 21.029 41.7465C32.1563 41.8714 41.4008 32.5332 41.2296 21.4647Z" fill="white"/>
<path d="M104.741 38.1298C104.679 38.1597 104.608 38.1732 104.571 38.2153C102.504 40.5377 99.1736 40.0325 97.9103 37.1234C96.9937 35.013 97.0699 32.859 98.2021 30.8096C99.4747 28.5063 103.211 28.0894 104.484 30.1754C104.537 30.2637 104.6 30.3696 104.829 30.333C104.829 29.8631 104.829 29.3755 104.829 28.8879C104.829 28.0541 104.816 27.2188 104.836 26.385C104.842 26.0957 104.676 25.6883 105.086 25.5633C105.489 25.4397 105.929 25.4316 106.333 25.5891C106.553 25.676 106.515 25.93 106.515 26.1297C106.517 30.3683 106.51 34.6082 106.525 38.8469C106.527 39.5001 106.139 39.492 105.688 39.492C105.24 39.492 104.816 39.5069 104.842 38.8536C104.852 38.6201 104.921 38.3607 104.742 38.1284L104.741 38.1298ZM104.83 34.3122C104.87 33.8219 104.782 33.3316 104.687 32.8468C104.406 31.4167 103.485 30.5027 102.274 30.4253C100.767 30.3289 99.7357 31.0351 99.278 32.5521C98.8752 33.8898 98.9207 35.2316 99.5135 36.5082C99.9993 37.5539 100.814 38.1243 102.001 38.1081C103.16 38.0931 103.936 37.5214 104.405 36.4906C104.714 35.8088 104.872 35.0822 104.83 34.3135V34.3122Z" fill="white"/>
<path d="M56.1482 10.2522C56.1482 8.1784 56.1642 6.10323 56.1375 4.03078C56.1294 3.44544 56.3088 3.23629 56.9002 3.25123C58.3241 3.28654 59.7493 3.25123 61.1732 3.26617C63.8069 3.29469 65.489 5.00181 65.4957 7.63244C65.5011 10.3541 63.8912 12.0666 61.2348 12.144C60.389 12.1685 59.5419 12.1793 58.6975 12.1427C58.1087 12.1169 57.8678 12.2622 57.9039 12.9331C57.9682 14.1241 57.912 15.322 57.924 16.5157C57.9293 17.0169 57.7688 17.2165 57.2268 17.1921C56.1495 17.1445 56.1482 17.1812 56.1482 16.0703C56.1482 14.1309 56.1482 12.1929 56.1482 10.2536V10.2522ZM57.9293 7.73702C57.9293 8.50298 57.9293 9.26759 57.9293 10.0336C57.9293 10.3323 57.9909 10.5754 58.3656 10.5646C59.4523 10.5333 60.5416 10.6528 61.6255 10.4559C62.921 10.221 63.7319 9.2187 63.7721 7.76418C63.8136 6.29065 63.0748 5.24763 61.7781 4.96515C60.6567 4.72069 59.5178 4.87959 58.3884 4.84835C57.9842 4.83748 57.928 5.11861 57.928 5.43912C57.928 6.20509 57.928 6.96969 57.928 7.73566L57.9293 7.73702Z" fill="white"/>
<path d="M110.59 12.5529C109.565 12.5529 108.54 12.5652 107.516 12.5475C107.041 12.5394 106.894 12.6874 106.99 13.1912C107.385 15.2596 109.184 16.3515 111.152 15.6861C111.682 15.5068 112.073 15.1646 112.362 14.6784C112.608 14.2655 113.414 14.2451 113.934 14.6498C114.371 14.9894 114.001 15.3221 113.826 15.5788C112.738 17.1759 111.143 17.6091 109.36 17.3674C107.01 17.0496 105.607 15.5462 105.284 13.0419C105.091 11.5412 105.236 10.0649 106.051 8.73126C107.105 7.00513 108.941 6.25274 111.021 6.68869C112.715 7.04315 113.965 8.46644 114.256 10.3963C114.329 10.8852 114.348 11.3823 114.389 11.8766C114.431 12.3628 114.225 12.5692 113.73 12.5584C112.683 12.5366 111.635 12.5516 110.589 12.5516V12.5543L110.59 12.5529ZM109.755 11.0278C110.467 11.0278 111.178 11.0346 111.89 11.0264C112.584 11.0183 112.703 10.8458 112.517 10.1559C112.168 8.86164 111.037 8.03049 109.727 8.10382C108.454 8.17444 107.242 9.27993 107.021 10.5294C106.954 10.9042 107.076 11.0278 107.42 11.0264C108.197 11.0224 108.976 11.0264 109.755 11.0264V11.0278Z" fill="white"/>
<path d="M73.5385 16.0474C72.3756 17.4462 70.9356 17.6648 69.3699 17.2859C67.6717 16.8744 66.7229 15.314 67.0307 13.5743C67.2006 12.6127 67.7814 12.022 68.6365 11.6512C69.8262 11.1365 71.1083 11.1012 72.3568 10.8947C72.8413 10.8146 73.4421 10.9165 73.5652 10.2021C73.687 9.49726 73.3418 8.73402 72.765 8.39178C71.7024 7.76162 69.9761 8.11337 69.2535 9.10885C68.9028 9.59097 67.7707 9.59233 67.4321 9.10613C67.3063 8.92551 67.4174 8.76525 67.495 8.60364C67.8443 7.87977 68.4197 7.39222 69.1263 7.06899C70.2785 6.54205 71.4803 6.41982 72.7141 6.7186C74.4057 7.12875 75.2193 8.11337 75.3036 10.1641C75.3919 12.3275 75.325 14.4964 75.3317 16.6639C75.3317 17.0279 75.1979 17.214 74.8152 17.1827C74.6398 17.1678 74.4578 17.1854 74.2825 17.2085C73.766 17.2764 73.5264 17.0673 73.5773 16.5295C73.5893 16.4032 73.5586 16.2714 73.5385 16.0474ZM73.58 13.1791C73.5893 12.1483 73.5907 12.1578 72.5629 12.3547C72.0825 12.447 71.594 12.4905 71.1096 12.5611C70.5582 12.6413 70.0163 12.7336 69.5104 13.0025C68.9644 13.2931 68.6593 13.7006 68.682 14.3429C68.7048 14.9853 69.0554 15.4172 69.5934 15.6467C71.2595 16.3597 73.7044 15.5 73.5786 13.1777L73.58 13.1791Z" fill="white"/>
<path d="M115.168 38.3254C113.898 39.8247 112.318 40.0271 110.575 39.3983C109.359 38.9596 108.564 37.7183 108.623 36.4539C108.691 34.9994 109.364 34.1493 110.789 33.7364C111.798 33.4444 112.838 33.3222 113.877 33.1959C114.432 33.128 115.113 33.2108 115.24 32.4136C115.364 31.6408 114.823 30.7798 114.119 30.5299C112.951 30.1143 111.678 30.4675 110.851 31.4249C110.686 31.615 110.598 31.9654 110.249 31.8459C109.851 31.7101 109.449 31.5621 109.089 31.3489C108.912 31.2443 109.079 31.012 109.16 30.8627C109.606 30.0329 110.296 29.4869 111.164 29.1664C112.22 28.778 113.303 28.7467 114.388 28.9966C115.959 29.3579 116.907 30.481 116.936 32.1148C116.976 34.3475 116.935 36.5816 116.96 38.8143C116.967 39.4404 116.639 39.5069 116.158 39.4947C115.674 39.4825 115.176 39.5382 115.255 38.7899C115.27 38.6473 115.317 38.4775 115.168 38.3254ZM115.26 35.3308C115.262 34.7332 114.964 34.491 114.367 34.6042C114.258 34.6246 114.144 34.6246 114.036 34.6463C113.083 34.8392 112.08 34.7848 111.184 35.252C110.673 35.5182 110.367 35.8998 110.365 36.5259C110.364 37.1669 110.64 37.573 111.188 37.8664C112.761 38.7057 115.401 37.7876 115.26 35.3308Z" fill="white"/>
<path d="M96.7046 8.15933C97.9385 6.39109 99.7344 6.35307 101.039 6.76049C102.376 7.17743 103.222 8.24897 103.278 9.87732C103.356 12.1535 103.303 14.4351 103.315 16.714C103.318 17.0698 103.171 17.1839 102.832 17.1771C101.422 17.1513 101.633 17.3414 101.624 16.0322C101.612 14.2042 101.633 12.3762 101.611 10.5496C101.593 9.20642 100.952 8.39836 99.7865 8.16069C98.5928 7.91895 97.4112 8.52059 96.904 9.61657C96.7073 10.0417 96.71 10.4939 96.7073 10.9434C96.6993 12.7483 96.7073 14.5532 96.6952 16.3595C96.6939 16.6366 96.7849 17.0684 96.4825 17.1404C96.0422 17.2463 95.5497 17.2504 95.0987 17.1078C94.9114 17.0481 94.9515 16.7982 94.9515 16.6216C94.9488 12.3789 94.9515 8.1376 94.9448 3.89491C94.9448 3.43859 95.1081 3.26068 95.5725 3.25118C96.6859 3.22945 96.6926 3.20908 96.7019 4.37296C96.71 5.6129 96.7033 6.85285 96.7033 8.15797L96.7046 8.15933Z" fill="white"/>
<path d="M74.6974 34.2594C74.7737 35.6718 74.4378 36.962 73.5612 38.0594C71.7506 40.3233 68.1508 40.2337 66.4057 37.9032C64.947 35.9557 64.9885 32.4056 66.4632 30.5396C67.6717 29.0117 69.2668 28.6057 71.0654 28.9465C72.8212 29.2793 73.9052 30.435 74.4458 32.134C74.6666 32.828 74.7375 33.5423 74.696 34.2594H74.6974ZM73.0366 34.0462C73.0728 33.3889 72.8814 32.5632 72.4532 31.7999C71.9366 30.8791 71.1511 30.4282 70.0979 30.4119C69.0193 30.3943 68.1628 30.8166 67.6583 31.766C66.7978 33.3834 66.7817 35.0675 67.6235 36.6918C68.5067 38.3962 70.7951 38.6257 72.0905 37.2092C72.86 36.3685 73.0246 35.3472 73.0353 34.0448L73.0366 34.0462Z" fill="white"/>
<path d="M129.424 34.3543C129.39 32.5521 129.829 31.0433 131.113 29.9202C132.552 28.6612 134.23 28.539 135.936 29.2031C137.696 29.8876 138.48 31.3774 138.728 33.1782C138.92 34.5839 138.824 35.9705 138.142 37.2539C137.163 39.0954 135.595 39.8207 133.59 39.6428C131.778 39.4811 130.548 38.4857 129.853 36.8057C129.513 35.9854 129.367 35.1217 129.423 34.3543H129.424ZM137.086 34.1995C137.121 33.5096 136.999 32.7559 136.655 32.0551C136.202 31.1316 135.525 30.5082 134.452 30.4213C133.286 30.3276 132.311 30.6725 131.734 31.7441C130.864 33.3602 130.843 35.0402 131.662 36.674C132.211 37.7686 133.178 38.1896 134.392 38.1013C135.527 38.0185 136.217 37.3517 136.694 36.3969C137.02 35.741 137.106 35.0212 137.086 34.1995Z" fill="white"/>
<path d="M56.1482 32.404C56.1482 30.352 56.1642 28.2999 56.1361 26.2491C56.1294 25.7086 56.2579 25.4873 56.8333 25.494C59.1257 25.5199 61.4195 25.509 63.7118 25.5008C64.1655 25.4995 64.5282 25.5579 64.4559 26.1541C64.397 26.6348 64.5576 27.1944 63.7038 27.1618C62.0364 27.0993 60.3649 27.1618 58.6961 27.136C58.1113 27.1265 57.9066 27.3478 57.92 27.9278C57.9441 28.964 57.9387 30.0029 57.9066 31.0391C57.8905 31.5593 58.1127 31.7073 58.5837 31.7019C60.12 31.687 61.6563 31.7223 63.1913 31.6815C63.7694 31.6666 63.8657 31.926 63.8524 32.4081C63.839 32.8807 63.8791 33.3072 63.1859 33.2922C61.6724 33.2596 60.1575 33.3031 58.6453 33.2732C58.0217 33.261 57.8357 33.4742 57.8785 34.1071C57.9842 35.6811 57.924 37.2606 57.9079 38.8387C57.8986 39.7147 57.2857 39.4444 56.824 39.4906C56.2847 39.5449 56.1401 39.2678 56.1441 38.764C56.1602 36.644 56.1508 34.5254 56.1508 32.4054L56.1482 32.404Z" fill="white"/>
<path d="M142.36 30.5707C143.734 28.0786 147.618 28.4548 148.562 30.6562C148.91 31.467 148.965 32.3213 148.98 33.1728C149.013 35.0008 148.996 36.8288 148.988 38.6568C148.985 39.4363 148.905 39.4608 148.062 39.5015C147.405 39.5327 147.219 39.2638 147.228 38.631C147.256 36.7133 147.247 34.7944 147.234 32.8767C147.223 31.3353 146.432 30.4539 145.067 30.4213C143.569 30.386 142.515 31.3027 142.471 32.8075C142.415 34.7237 142.455 36.6441 142.439 38.5617C142.436 38.8605 142.568 39.272 142.215 39.4146C141.804 39.5803 141.335 39.5545 140.905 39.4146C140.68 39.3413 140.695 39.0886 140.695 38.8876C140.691 35.7953 140.695 32.7042 140.687 29.6119C140.684 28.7603 141.301 29.0537 141.736 28.9912C142.249 28.9179 142.421 29.1555 142.364 29.6499C142.336 29.893 142.358 30.1429 142.358 30.5707H142.36Z" fill="white"/>
<path d="M83.0747 37.9004C82.0737 39.3129 80.8827 39.7977 79.4066 39.5383C77.8971 39.2721 77.0098 38.3364 76.7529 36.8085C76.6137 35.9801 76.6338 35.1476 76.6325 34.3137C76.6325 32.7804 76.6512 31.2471 76.6218 29.7138C76.6111 29.1665 76.7609 28.9003 77.3324 28.9859C77.4635 29.0049 77.6013 29.0063 77.7325 28.9859C78.3039 28.8976 78.3949 29.1883 78.3735 29.6948C78.2879 31.6994 78.2517 33.7053 78.3936 35.7085C78.4966 37.1548 79.3022 37.9507 80.5669 37.9344C81.8502 37.9181 83.0118 36.8669 83.0466 35.5781C83.0975 33.6849 83.064 31.7904 83.0774 29.8972C83.0801 29.597 82.9583 29.176 83.3156 29.0552C83.7519 28.9085 84.2417 28.9234 84.694 29.0552C84.8974 29.1149 84.8398 29.3594 84.8398 29.5332C84.8412 32.6215 84.8265 35.7112 84.8479 38.7995C84.8532 39.5492 84.3915 39.4731 83.9138 39.4894C83.4133 39.5057 83.0065 39.4568 83.068 38.7886C83.0881 38.5673 83.0707 38.3418 83.0707 37.8977L83.0747 37.9004Z" fill="white"/>
<path d="M88.9067 30.4662C89.6494 29.3009 90.6223 28.8446 91.8482 28.8487C93.9947 28.8541 95.3557 30.1117 95.4052 32.286C95.456 34.4712 95.4052 36.6604 95.4319 38.847C95.44 39.507 95.0479 39.4907 94.5996 39.4921C94.1272 39.4934 93.7163 39.5111 93.727 38.8144C93.7538 36.8764 93.7391 34.937 93.7297 32.9976C93.723 31.4806 93.0071 30.5341 91.8134 30.4295C90.2048 30.2882 89.1971 31.0651 88.9455 32.6581C88.896 32.9678 88.8813 33.2856 88.8813 33.6006C88.8746 35.2684 88.8813 36.9375 88.8773 38.6052C88.876 39.4662 88.8318 39.4744 87.9593 39.4988C87.3838 39.5151 87.1764 39.3141 87.1804 38.7193C87.2005 35.6989 87.2032 32.6771 87.1751 29.6554C87.1697 29.085 87.3852 28.9261 87.8763 28.994C88.2952 29.0524 88.9509 28.7237 88.8679 29.6201C88.8465 29.855 88.8867 30.0954 88.9067 30.4675V30.4662Z" fill="white"/>
<path d="M79.3611 8.04392C80.2029 6.86917 81.3524 6.46446 82.6679 6.57446C84.698 6.74558 85.8502 7.98824 85.9037 10.0851C85.9599 12.2703 85.9144 14.4582 85.9305 16.6461C85.9332 17.0698 85.7659 17.1758 85.3751 17.1825C84.2363 17.2029 84.2363 17.2179 84.2363 16.054C84.2363 14.2273 84.251 12.4007 84.2269 10.5754C84.2136 9.65055 83.9191 8.83297 83.0413 8.38073C82.1714 7.93391 81.3042 8.02898 80.5013 8.54777C79.6743 9.08286 79.3919 9.93167 79.3825 10.8769C79.3651 12.7253 79.3384 14.575 79.3932 16.4234C79.416 17.1744 79.0654 17.192 78.51 17.188C77.9787 17.1839 77.6589 17.1635 77.6683 16.4505C77.7097 13.4749 77.6843 10.498 77.687 7.52241C77.687 6.71163 77.7499 6.69805 78.6532 6.6736C79.3491 6.65459 79.4213 7.03486 79.3638 7.57674C79.3477 7.7302 79.3611 7.88774 79.3611 8.04392Z" fill="white"/>
<path d="M88.9589 11.689C88.9589 10.7641 88.9415 9.83792 88.9656 8.91306C88.979 8.39698 88.801 8.18512 88.2711 8.18919C87.5056 8.19327 87.2393 7.76139 87.4668 7.01172C87.5752 6.65183 87.8696 6.66813 88.1185 6.69529C88.8264 6.77134 89.0365 6.4291 88.9629 5.77993C88.9402 5.57893 88.9603 5.37386 88.9589 5.17151C88.9589 4.21133 88.9616 4.26022 89.9064 4.19775C90.5942 4.15293 90.7267 4.4327 90.7174 5.05199C90.6959 6.60565 90.7174 6.62467 92.2255 6.67763C92.7755 6.69665 92.8893 6.95468 92.888 7.44224C92.8866 7.92572 92.7863 8.19055 92.2296 8.20821C90.7053 8.25981 90.7053 8.28018 90.7066 9.8257C90.7066 11.2924 90.6933 12.7605 90.72 14.2259C90.7401 15.3559 91.2085 15.7782 92.3206 15.6465C92.6698 15.6057 92.8184 15.7497 92.813 16.0064C92.805 16.4247 93.4607 17.0643 92.6471 17.2368C90.8699 17.6144 89.0753 16.7574 88.991 14.7339C88.9482 13.7207 88.983 12.7035 88.983 11.6876C88.975 11.6876 88.9669 11.6876 88.9589 11.6876V11.689Z" fill="white"/>
<path d="M120.063 34.1262C120.063 33.2013 120.037 32.2751 120.071 31.3516C120.096 30.6915 119.942 30.3058 119.19 30.4335C118.625 30.5299 118.463 30.2339 118.466 29.692C118.468 29.1718 118.633 28.9722 119.163 28.9803C120.063 28.9939 120.063 28.964 120.065 28.031C120.065 27.8504 120.063 27.6698 120.063 27.4892C120.063 26.5073 120.43 26.2329 121.379 26.4774C121.647 26.5466 121.743 26.7069 121.744 26.9609C121.747 27.39 121.783 27.8219 121.744 28.2456C121.687 28.8595 121.949 29.0659 122.518 28.9953C122.716 28.9708 122.921 29.0129 123.119 28.9871C123.736 28.907 123.951 29.1732 123.916 29.7911C123.892 30.2366 123.769 30.4281 123.297 30.4444C121.751 30.4987 121.752 30.515 121.752 32.085C121.752 33.5517 121.744 35.0171 121.755 36.4838C121.763 37.6015 122.102 37.9777 123.208 37.9166C124.12 37.8664 123.899 38.5848 124.014 39.0207C124.162 39.5789 123.638 39.5395 123.321 39.5844C121.424 39.8533 120.07 38.6432 120.066 36.697C120.063 35.8401 120.066 34.9831 120.066 34.1248L120.063 34.1262Z" fill="white"/>
<path d="M118.04 7.93804C118.732 6.93441 119.681 6.51475 120.848 6.51883C121.331 6.51883 121.568 6.64921 121.505 7.16664C121.486 7.32282 121.487 7.48308 121.505 7.63926C121.553 8.11052 121.371 8.2925 120.892 8.2341C120.212 8.1499 119.56 8.25991 118.979 8.66462C118.277 9.15353 117.981 9.83801 117.985 10.6895C117.995 12.6289 117.982 14.5683 117.993 16.509C117.996 16.9015 118.021 17.279 117.466 17.1717C117 17.0821 116.241 17.5248 116.24 16.5307C116.236 13.4628 116.245 10.3962 116.233 7.32825C116.231 6.55685 116.757 6.71304 117.206 6.6818C117.701 6.64785 117.982 6.7986 117.898 7.36492C117.875 7.51567 117.908 7.67457 117.914 7.82939C117.956 7.86606 117.999 7.90273 118.04 7.93804Z" fill="white"/>
<path d="M125.81 34.1561C125.81 32.7342 125.81 31.3122 125.81 29.8903C125.81 29.2909 126.115 28.9912 126.725 28.9912C126.769 28.9912 126.815 28.9967 126.859 28.9899C127.374 28.9111 127.508 29.1678 127.503 29.6499C127.484 31.3883 127.495 33.1253 127.493 34.8636C127.493 36.128 127.497 37.3911 127.493 38.6554C127.491 39.4594 127.444 39.4608 126.586 39.5002C125.97 39.5287 125.782 39.3182 125.8 38.6921C125.845 37.1806 125.815 35.6676 125.815 34.1561H125.81Z" fill="white"/>
<path d="M126.676 27.3222C125.969 27.3304 125.456 26.8387 125.471 26.1665C125.485 25.5744 125.986 25.1004 126.619 25.0814C127.281 25.0624 127.796 25.5336 127.816 26.1773C127.835 26.8089 127.33 27.3154 126.676 27.3222Z" fill="white"/>
<path d="M21.3836 3.76612C29.9336 3.62352 37.6217 10.4262 38.6133 19.2674C39.2102 24.5884 37.8238 29.3336 34.331 33.3142C30.9238 37.1983 26.5438 39.1812 21.3796 39.211C17.8038 39.2328 14.9735 36.5125 14.7741 32.7506C14.5867 29.2195 17.1454 26.3078 20.404 25.8569C22.5358 25.5622 24.3679 26.0918 25.8158 27.78C26.2534 28.2892 26.7526 28.7442 27.2223 29.2236C27.4364 29.4436 27.7027 29.521 27.9998 29.5686C28.6703 29.6745 29.334 29.5876 29.9978 29.5251C30.5759 29.4708 30.9426 29.1217 30.8703 28.5432C30.7298 27.4282 31.2357 26.6989 32.0828 26.1122C32.2862 25.971 32.5217 25.7822 32.5311 25.5432C32.5699 24.6061 32.9994 23.8455 33.4772 23.085C33.6926 22.7414 33.5214 22.3937 33.3179 22.0746C32.8362 21.3154 32.3598 20.5522 31.8887 19.7862C31.4672 19.1004 31.0376 18.443 30.9814 17.5712C30.9372 16.8785 30.4474 16.3353 29.9175 15.9034C27.9797 14.3226 25.8145 13.1193 23.5836 12.0288C23.1889 11.8359 22.7499 11.8278 22.3351 11.8902C21.5709 12.0057 21.0236 11.7232 20.5204 11.1528C20.0025 10.5661 19.4191 10.0337 18.8276 9.52036C18.1866 8.96355 17.9229 9.05997 17.6727 9.89927C17.5696 10.2429 17.5067 10.6001 17.4372 10.9532C17.3488 11.4027 17.0905 11.6105 16.6356 11.5792C13.397 11.3511 10.2575 12.0423 7.10868 12.644C6.87985 12.6874 6.59213 12.8776 6.42485 12.6494C6.2763 12.4471 6.53057 12.2406 6.64566 12.0614C10.1157 6.65478 15.0484 3.92501 21.3849 3.76748L21.3836 3.76612Z" fill="white"/>
</g>
<defs>
<clipPath id="clip0_40_116">
<rect width="149" height="43" fill="white"/>
</clipPath>
</defs>
</svg>
