<svg width="217" height="41" viewBox="0 0 217 41" fill="none" xmlns="http://www.w3.org/2000/svg">
<g clip-path="url(#clip0_0_1)">
<path d="M19.9662 0.00278932C30.8427 -0.170731 39.9601 9.20843 39.9349 20.486C39.9098 31.6832 31.1394 40.9678 20.0228 41.0015C8.87469 41.0339 -0.020153 31.8334 -3.46041e-05 20.3474C0.0200838 9.11131 9.05324 -0.146127 19.9662 0.00278932ZM38.7392 20.4665C38.8574 10.2729 30.8062 1.26664 20.1083 1.15398C9.74229 1.04521 1.27748 9.70439 1.1618 20.2322C1.04361 30.9593 9.52853 39.6884 19.7587 39.805C30.214 39.9241 38.9001 31.0202 38.7392 20.4665Z" fill="black"/>
<path d="M20.092 3.59084C28.1255 3.45487 35.3492 9.94116 36.281 18.3711C36.8418 23.4447 35.5391 27.9691 32.2573 31.7646C29.056 35.4681 24.9405 37.3587 20.0882 37.3871C16.7284 37.4079 14.069 34.8141 13.8817 31.2272C13.7056 27.8604 16.1098 25.084 19.1716 24.6541C21.1746 24.3731 22.896 24.8782 24.2565 26.4877C24.6676 26.9733 25.1367 27.4071 25.578 27.8643C25.7792 28.074 26.0294 28.1478 26.3085 28.1932C26.9385 28.2942 27.5622 28.2113 28.1858 28.1517C28.729 28.0999 29.0736 27.7671 29.0057 27.2155C28.8736 26.1524 29.3489 25.457 30.1449 24.8976C30.336 24.7629 30.5573 24.5829 30.5661 24.355C30.6026 23.4615 31.0062 22.7363 31.4551 22.0112C31.6575 21.6836 31.4966 21.3521 31.3055 21.0478C30.8528 20.3239 30.4052 19.5961 29.9625 18.8658C29.5665 18.2119 29.1628 17.5851 29.11 16.7538C29.0685 16.0934 28.6083 15.5754 28.1104 15.1636C26.2897 13.6563 24.2552 12.509 22.1591 11.4692C21.7882 11.2853 21.3758 11.2775 20.986 11.3371C20.268 11.4472 19.7537 11.1778 19.2809 10.6339C18.7943 10.0745 18.2461 9.56693 17.6903 9.07744C17.088 8.54652 16.8403 8.63846 16.6052 9.43873C16.5084 9.76635 16.4493 10.1069 16.3839 10.4436C16.3009 10.8722 16.0582 11.0703 15.6307 11.0406C12.5878 10.823 9.63796 11.4821 6.6793 12.0558C6.46429 12.0972 6.19395 12.2785 6.03677 12.061C5.8972 11.868 6.13611 11.6712 6.24424 11.5003C9.50468 6.34515 14.1394 3.74234 20.0932 3.59213L20.092 3.59084Z" fill="black"/>
</g>
<path d="M54.411 27V13.3334H60.4128C61.9674 13.3334 63.1589 13.7603 63.9872 14.6141C64.8027 15.4551 65.2105 16.4936 65.2105 17.7297C65.2105 19.0294 64.8027 20.0743 63.9872 20.8644C63.1716 21.6544 62.0566 22.0494 60.6422 22.0494H57.2781V27H54.411ZM57.2781 15.7418V19.794H60.1452C60.8588 19.794 61.4067 19.6156 61.789 19.2588C62.1713 18.8892 62.3625 18.3859 62.3625 17.7488C62.3625 17.1116 62.1713 16.621 61.789 16.277C61.4067 15.9202 60.8716 15.7418 60.1834 15.7418H57.2781ZM72.1716 27C72.0441 26.8343 71.9422 26.4712 71.8657 25.9105H71.8275C71.5472 26.331 71.1904 26.6559 70.7571 26.8853C70.3239 27.1147 69.7186 27.2294 68.9413 27.2294C67.9091 27.2294 67.0808 26.9681 66.4565 26.4457C65.8321 25.9232 65.5199 25.1842 65.5199 24.2285C65.5199 23.2345 65.8639 22.5082 66.552 22.0494C67.2401 21.578 68.2086 21.253 69.4574 21.0746C70.3748 20.9472 70.9992 20.8198 71.3306 20.6923C71.6619 20.5522 71.8275 20.3101 71.8275 19.966C71.8275 19.6092 71.6874 19.3289 71.407 19.125C71.1267 18.9084 70.7189 18.8 70.1837 18.8C68.9986 18.8 68.3679 19.2588 68.2914 20.1763H65.9786C66.0168 19.246 66.3927 18.4751 67.1063 17.8635C67.8199 17.2518 68.8521 16.946 70.2028 16.946C72.9553 16.946 74.3315 18.1502 74.3315 20.5585V25.5473C74.3315 26.2864 74.4462 26.7388 74.6755 26.9044V27H72.1716ZM69.5721 25.4135C70.2856 25.4135 70.8463 25.2288 71.2541 24.8592C71.6746 24.4897 71.8849 24.0501 71.8849 23.5403V22.0686C71.6045 22.2342 70.9992 22.4254 70.069 22.642C69.3299 22.8076 68.8075 22.9988 68.5017 23.2154C68.1958 23.4193 68.0429 23.7379 68.0429 24.1711C68.0429 24.9994 68.5526 25.4135 69.5721 25.4135ZM78.5263 17.1945V18.5324H78.5836C79.259 17.4621 80.2274 16.9269 81.489 16.9269C82.4956 16.9269 83.3112 17.2709 83.9356 17.959C84.56 18.6344 84.8722 19.5136 84.8722 20.5968V27H82.2726V20.9791C82.2726 20.4439 82.1197 20.0106 81.8139 19.6793C81.5208 19.348 81.1067 19.1823 80.5715 19.1823C79.9981 19.1823 79.5202 19.3926 79.1379 19.8131C78.7684 20.2336 78.5836 20.7752 78.5836 21.4378V27H75.9841V17.1945H78.5263ZM85.7144 18.9147V17.1945H87.0715V14.1362H89.6137V17.1945H91.2957V18.9147H89.6137V24.1138C89.6137 24.7636 89.9386 25.0886 90.5885 25.0886L91.353 25.0695V26.9809C90.958 27.0064 90.4164 27.0191 89.7283 27.0191C88.9765 27.0191 88.3458 26.8407 87.836 26.4839C87.3263 26.1144 87.0715 25.5091 87.0715 24.6681V18.9147H85.7144ZM95.2338 13.3334V18.4751H95.2911C95.6607 17.9399 96.0621 17.5513 96.4953 17.3091C96.9413 17.0543 97.4893 16.9269 98.1391 16.9269C99.1458 16.9269 99.9614 17.2709 100.586 17.959C101.21 18.6344 101.522 19.5136 101.522 20.5968V27H98.9228V20.9791C98.9228 20.4439 98.7699 20.0106 98.4641 19.6793C98.171 19.348 97.7569 19.1823 97.2217 19.1823C96.6482 19.1823 96.1704 19.3926 95.7881 19.8131C95.4186 20.2336 95.2338 20.7752 95.2338 21.4378V27H92.6343V13.3334H95.2338ZM107.731 27.2867C106.151 27.2867 104.909 26.8025 104.004 25.834C103.099 24.8528 102.647 23.6041 102.647 22.0877C102.647 20.6223 103.099 19.399 104.004 18.4178C104.909 17.4238 106.068 16.9269 107.483 16.9269C109.025 16.9269 110.216 17.4621 111.057 18.5324C111.898 19.6028 112.319 21.0364 112.319 22.8331H105.208C105.31 23.6104 105.571 24.2157 105.992 24.649C106.412 25.0695 106.986 25.2797 107.712 25.2797C108.668 25.2797 109.299 24.8783 109.604 24.0755H112.166C111.974 24.993 111.49 25.7576 110.713 26.3692C109.936 26.9809 108.942 27.2867 107.731 27.2867ZM107.521 18.9338C106.259 18.9338 105.501 19.6347 105.246 21.0364H109.604C109.566 20.412 109.356 19.9087 108.974 19.5264C108.591 19.1314 108.107 18.9338 107.521 18.9338ZM116.026 17.1945V18.7618H116.083C116.389 18.1884 116.726 17.7679 117.096 17.5003C117.466 17.2199 117.931 17.0798 118.491 17.0798C118.759 17.0798 118.963 17.1053 119.103 17.1562V19.4308H119.046C118.166 19.3416 117.459 19.5328 116.924 20.0042C116.389 20.4757 116.121 21.2148 116.121 22.2215V27H113.522V17.1945H116.026ZM123.644 27V13.3334H133.43V15.6844H126.415V18.9721H132.36V21.3422H126.415V27H123.644ZM142.258 25.8149C141.302 26.7961 140.072 27.2867 138.568 27.2867C137.065 27.2867 135.835 26.7961 134.879 25.8149C133.924 24.821 133.446 23.5849 133.446 22.1068C133.446 20.6286 133.924 19.399 134.879 18.4178C135.835 17.4238 137.065 16.9269 138.568 16.9269C140.072 16.9269 141.302 17.4238 142.258 18.4178C143.213 19.399 143.691 20.6286 143.691 22.1068C143.691 23.5849 143.213 24.821 142.258 25.8149ZM138.568 25.2988C139.346 25.2988 139.951 25.0121 140.384 24.4387C140.83 23.8525 141.053 23.0752 141.053 22.1068C141.053 21.1383 140.83 20.361 140.384 19.7749C139.951 19.1887 139.346 18.8956 138.568 18.8956C137.778 18.8956 137.167 19.1887 136.734 19.7749C136.3 20.3483 136.084 21.1256 136.084 22.1068C136.084 23.0752 136.3 23.8525 136.734 24.4387C137.167 25.0121 137.778 25.2988 138.568 25.2988ZM153.596 27H151.092V25.8532H151.035C150.678 26.3374 150.283 26.6942 149.85 26.9235C149.429 27.1529 148.888 27.2676 148.225 27.2676C147.155 27.2676 146.32 26.949 145.721 26.3119C145.122 25.6748 144.823 24.8146 144.823 23.7315V17.1945H147.403V23.2919C147.403 24.4769 147.945 25.0695 149.028 25.0695C149.627 25.0695 150.105 24.8656 150.462 24.4578C150.818 24.0501 150.997 23.5149 150.997 22.8522V17.1945H153.596V27ZM157.82 17.1945V18.5324H157.877C158.553 17.4621 159.521 16.9269 160.783 16.9269C161.789 16.9269 162.605 17.2709 163.229 17.959C163.854 18.6344 164.166 19.5136 164.166 20.5968V27H161.566V20.9791C161.566 20.4439 161.413 20.0106 161.108 19.6793C160.815 19.348 160.4 19.1823 159.865 19.1823C159.292 19.1823 158.814 19.3926 158.432 19.8131C158.062 20.2336 157.877 20.7752 157.877 21.4378V27H155.278V17.1945H157.82ZM169.438 27.2867C168.202 27.2867 167.202 26.8216 166.437 25.8914C165.673 24.9484 165.29 23.6869 165.29 22.1068C165.29 20.5777 165.679 19.3352 166.456 18.3795C167.246 17.4111 168.253 16.9269 169.476 16.9269C170.7 16.9269 171.623 17.4111 172.248 18.3795H172.305V13.3334H174.905V27H172.401V25.7194H172.363C171.725 26.7643 170.751 27.2867 169.438 27.2867ZM170.012 25.1077C170.776 25.1077 171.356 24.8465 171.751 24.324C172.159 23.8016 172.363 23.0816 172.363 22.1641C172.363 20.0743 171.604 19.0294 170.088 19.0294C169.387 19.0294 168.852 19.3098 168.482 19.8704C168.113 20.4311 167.928 21.1766 167.928 22.1068C167.928 23.0625 168.106 23.8016 168.463 24.324C168.833 24.8465 169.349 25.1077 170.012 25.1077ZM182.768 27C182.641 26.8343 182.539 26.4712 182.463 25.9105H182.424C182.144 26.331 181.787 26.6559 181.354 26.8853C180.921 27.1147 180.315 27.2294 179.538 27.2294C178.506 27.2294 177.678 26.9681 177.053 26.4457C176.429 25.9232 176.117 25.1842 176.117 24.2285C176.117 23.2345 176.461 22.5082 177.149 22.0494C177.837 21.578 178.805 21.253 180.054 21.0746C180.972 20.9472 181.596 20.8198 181.927 20.6923C182.259 20.5522 182.424 20.3101 182.424 19.966C182.424 19.6092 182.284 19.3289 182.004 19.125C181.723 18.9084 181.316 18.8 180.781 18.8C179.595 18.8 178.965 19.2588 178.888 20.1763H176.575C176.614 19.246 176.99 18.4751 177.703 17.8635C178.417 17.2518 179.449 16.946 180.8 16.946C183.552 16.946 184.928 18.1502 184.928 20.5585V25.5473C184.928 26.2864 185.043 26.7388 185.272 26.9044V27H182.768ZM180.169 25.4135C180.882 25.4135 181.443 25.2288 181.851 24.8592C182.271 24.4897 182.482 24.0501 182.482 23.5403V22.0686C182.201 22.2342 181.596 22.4254 180.666 22.642C179.927 22.8076 179.404 22.9988 179.098 23.2154C178.793 23.4193 178.64 23.7379 178.64 24.1711C178.64 24.9994 179.149 25.4135 180.169 25.4135ZM185.821 18.9147V17.1945H187.178V14.1362H189.72V17.1945H191.402V18.9147H189.72V24.1138C189.72 24.7636 190.045 25.0886 190.695 25.0886L191.459 25.0695V26.9809C191.064 27.0064 190.523 27.0191 189.835 27.0191C189.083 27.0191 188.452 26.8407 187.942 26.4839C187.433 26.1144 187.178 25.5091 187.178 24.6681V18.9147H185.821ZM192.741 27V17.1945H195.34V27H192.741ZM192.741 15.6653V13.3334H195.34V15.6653H192.741ZM205.349 25.8149C204.393 26.7961 203.164 27.2867 201.66 27.2867C200.156 27.2867 198.927 26.7961 197.971 25.8149C197.015 24.821 196.537 23.5849 196.537 22.1068C196.537 20.6286 197.015 19.399 197.971 18.4178C198.927 17.4238 200.156 16.9269 201.66 16.9269C203.164 16.9269 204.393 17.4238 205.349 18.4178C206.305 19.399 206.783 20.6286 206.783 22.1068C206.783 23.5849 206.305 24.821 205.349 25.8149ZM201.66 25.2988C202.437 25.2988 203.043 25.0121 203.476 24.4387C203.922 23.8525 204.145 23.0752 204.145 22.1068C204.145 21.1383 203.922 20.361 203.476 19.7749C203.043 19.1887 202.437 18.8956 201.66 18.8956C200.87 18.8956 200.258 19.1887 199.825 19.7749C199.392 20.3483 199.175 21.1256 199.175 22.1068C199.175 23.0752 199.392 23.8525 199.825 24.4387C200.258 25.0121 200.87 25.2988 201.66 25.2988ZM210.533 17.1945V18.5324H210.59C211.266 17.4621 212.234 16.9269 213.496 16.9269C214.502 16.9269 215.318 17.2709 215.942 17.959C216.567 18.6344 216.879 19.5136 216.879 20.5968V27H214.279V20.9791C214.279 20.4439 214.127 20.0106 213.821 19.6793C213.528 19.348 213.114 19.1823 212.578 19.1823C212.005 19.1823 211.527 19.3926 211.145 19.8131C210.775 20.2336 210.59 20.7752 210.59 21.4378V27H207.991V17.1945H210.533Z" fill="#1A1A1A"/>
<defs>
<clipPath id="clip0_0_1">
<rect width="140" height="41" fill="white"/>
</clipPath>
</defs>
</svg>
