<svg width="40" height="41" viewBox="0 0 40 41" fill="none" xmlns="http://www.w3.org/2000/svg">
<path d="M19.9662 0.00279695C30.8427 -0.170723 39.9601 9.20844 39.935 20.486C39.9098 31.6832 31.1395 40.9678 20.0228 41.0015C8.87469 41.0339 -0.0201454 31.8334 -2.69747e-05 20.3474C0.0200914 9.11132 9.05324 -0.14612 19.9662 0.00279695ZM38.7392 20.4665C38.8574 10.2729 30.8062 1.26665 20.1083 1.15399C9.7423 1.04521 1.27749 9.7044 1.16181 20.2322C1.04361 30.9593 9.52854 39.6884 19.7587 39.805C30.214 39.9241 38.9001 31.0202 38.7392 20.4665Z" fill="black"/>
<path d="M20.092 3.59084C28.1255 3.45488 35.3492 9.94117 36.281 18.3711C36.8418 23.4447 35.5391 27.9692 32.2573 31.7646C29.056 35.4681 24.9405 37.3587 20.0882 37.3872C16.7284 37.4079 14.069 34.8141 13.8817 31.2272C13.7056 27.8604 16.1098 25.0841 19.1716 24.6541C21.1746 24.3731 22.896 24.8782 24.2565 26.4878C24.6676 26.9734 25.1367 27.4072 25.578 27.8643C25.7792 28.074 26.0294 28.1479 26.3085 28.1932C26.9385 28.2942 27.5622 28.2113 28.1858 28.1517C28.729 28.0999 29.0736 27.7671 29.0057 27.2155C28.8736 26.1524 29.3489 25.457 30.1449 24.8976C30.336 24.7629 30.5573 24.5829 30.5661 24.355C30.6026 23.4615 31.0062 22.7363 31.4551 22.0112C31.6575 21.6836 31.4966 21.3521 31.3055 21.0478C30.8528 20.3239 30.4052 19.5961 29.9625 18.8658C29.5665 18.2119 29.1628 17.5851 29.11 16.7538C29.0685 16.0934 28.6083 15.5754 28.1104 15.1636C26.2897 13.6563 24.2552 12.509 22.1591 11.4692C21.7882 11.2853 21.3758 11.2775 20.986 11.3371C20.268 11.4472 19.7537 11.1778 19.2809 10.634C18.7943 10.0745 18.2461 9.56693 17.6903 9.07745C17.088 8.54653 16.8403 8.63847 16.6052 9.43874C16.5084 9.76635 16.4493 10.1069 16.3839 10.4436C16.3009 10.8722 16.0582 11.0703 15.6307 11.0406C12.5878 10.823 9.63796 11.4821 6.6793 12.0558C6.46429 12.0972 6.19395 12.2785 6.03677 12.061C5.8972 11.868 6.13611 11.6712 6.24424 11.5003C9.50468 6.34515 14.1394 3.74235 20.0932 3.59214L20.092 3.59084Z" fill="black"/>
</svg>
