<svg width="43" height="43" viewBox="0 0 43 43" fill="none" xmlns="http://www.w3.org/2000/svg">
<path d="M21.2498 0.00272944C32.8255 -0.179255 42.529 9.65743 42.5022 21.4851C42.4754 33.2285 33.1413 42.9661 21.31 43.0014C9.44523 43.0353 -0.0214212 33.3861 -9.52635e-06 21.3398C0.0214022 9.55557 9.63525 -0.153451 21.2498 0.00272944ZM41.2296 21.4647C41.3553 10.7738 32.7867 1.32823 21.401 1.21008C10.3686 1.096 1.35963 10.1776 1.23652 21.2189C1.11072 32.4693 10.1411 41.6243 21.029 41.7465C32.1563 41.8714 41.4008 32.5332 41.2296 21.4647Z" fill="white"/>
<path d="M21.3836 3.76612C29.9336 3.62352 37.6217 10.4262 38.6133 19.2674C39.2102 24.5884 37.8238 29.3336 34.331 33.3142C30.9238 37.1983 26.5438 39.1812 21.3796 39.211C17.8038 39.2328 14.9735 36.5125 14.7741 32.7506C14.5867 29.2195 17.1454 26.3078 20.404 25.8569C22.5358 25.5622 24.3679 26.0918 25.8158 27.78C26.2534 28.2892 26.7526 28.7442 27.2223 29.2236C27.4364 29.4436 27.7027 29.521 27.9998 29.5686C28.6703 29.6745 29.334 29.5876 29.9978 29.5251C30.5759 29.4708 30.9426 29.1217 30.8703 28.5432C30.7298 27.4282 31.2357 26.6989 32.0828 26.1122C32.2862 25.971 32.5217 25.7822 32.5311 25.5432C32.5699 24.6061 32.9994 23.8455 33.4772 23.085C33.6926 22.7414 33.5214 22.3937 33.3179 22.0746C32.8362 21.3154 32.3598 20.5522 31.8887 19.7862C31.4672 19.1004 31.0376 18.443 30.9814 17.5712C30.9372 16.8785 30.4474 16.3353 29.9175 15.9034C27.9797 14.3226 25.8145 13.1193 23.5836 12.0288C23.1889 11.8359 22.7499 11.8278 22.3351 11.8902C21.5709 12.0057 21.0236 11.7232 20.5204 11.1528C20.0025 10.5661 19.4191 10.0337 18.8276 9.52036C18.1866 8.96355 17.9229 9.05997 17.6727 9.89927C17.5696 10.2429 17.5067 10.6001 17.4372 10.9532C17.3488 11.4027 17.0905 11.6105 16.6356 11.5792C13.397 11.3511 10.2575 12.0423 7.10868 12.644C6.87985 12.6874 6.59213 12.8776 6.42485 12.6494C6.2763 12.4471 6.53057 12.2406 6.64566 12.0614C10.1157 6.65478 15.0484 3.92501 21.3849 3.76748L21.3836 3.76612Z" fill="white"/>
</svg>
